<svg width="150" height="50" viewBox="0 0 150 50" fill="none" xmlns="http://www.w3.org/2000/svg">
<path fill-rule="evenodd" clip-rule="evenodd" d="M29.0446 22.3638C27.6989 21.1714 28.1923 19.4615 26.413 19.079C25.5383 18.8915 24.6785 19.2965 24.3571 19.8515C24.1627 20.1964 24.1253 20.8339 24.0057 20.9989C23.9234 21.1114 23.5197 21.3139 23.3553 21.8689C25.2841 21.8689 24.9327 21.9289 25.2243 24.3962C25.3514 25.4462 25.8523 26.8336 26.5625 27.4636C26.9812 27.831 27.183 28.0935 27.7661 28.4235C28.1998 28.671 28.8427 28.9335 29.381 29.046C31.3696 29.466 32.192 29.031 33.5751 29.031C33.7919 29.4885 34.9507 31.0709 35.3693 31.4909C35.6086 31.7308 35.9226 31.9633 36.4234 31.8208C37.3206 31.5659 39.2718 29.8559 39.07 28.761C38.9055 27.8985 36.8122 28.161 34.6815 27.4036C33.9115 27.1261 33.3358 26.8486 32.6854 26.4886C32.1546 26.1886 31.3771 25.5962 31.0556 25.2137C32.5508 25.3862 33.5227 25.6487 35.1974 24.7562C35.8852 24.3887 37.6047 22.9863 37.3206 21.9964C36.9468 21.8314 36.9094 21.8839 36.4683 21.9364C36.8047 21.5239 37.0888 21.3514 37.4626 20.7364C38.1056 19.679 38.2775 18.2465 37.9486 17.0466C37.8065 16.5216 37.5972 15.8317 37.029 15.7567C36.6627 16.2517 36.73 17.0691 35.6459 18.239C35.0703 18.8615 34.4273 19.589 33.5452 20.0465C34.3152 18.944 34.1582 16.8816 33.3807 15.5017C33.1564 15.0967 32.9246 14.5942 32.3266 14.6017C31.9228 16.0042 32.2219 16.7316 30.8612 18.6665C30.1062 19.739 28.9773 20.4439 29.067 22.3788M0 31.3559C0 38.353 3.23714 44.5927 8.29097 48.65C5.34539 44.5477 7.2817 37.2356 10.4516 32.5408C10.6609 32.1958 10.8104 32.1283 10.7207 31.7083C10.4067 31.5584 9.3451 31.5659 8.22368 31.0034C6.08553 29.9234 4.91926 27.2236 4.94916 24.9212C4.98654 21.5614 6.99761 18.6665 10.0478 17.4441C15.6923 15.1867 21.9423 20.129 19.7294 24.6512C19.0715 26.0011 19.6995 26.9836 20.4844 27.8985C20.8508 28.326 19.9088 29.0085 19.7069 29.241C19.5724 30.9059 18.436 32.3533 16.8212 32.7958C15.9539 33.0358 15.4755 32.8108 14.7802 32.9233C13.9653 33.0508 13.7036 34.3557 15.3633 35.4731C18.8472 37.8205 22.0769 37.1531 24.5739 34.4382C25.2467 33.7032 25.8149 32.8183 26.6971 32.2408C29.6501 30.3209 30.8687 31.7383 29.0969 32.6758C28.8128 32.8258 28.8278 32.7508 28.7754 33.0133C30.5547 33.7332 32.1845 30.6134 32.9919 30.9959C33.7844 31.3709 32.8499 35.2182 28.6857 35.6831C27.1905 35.8481 27.5194 35.9831 27.0111 37.2581C27.2952 37.573 27.5194 37.873 27.6839 38.1655C28.6035 39.8304 28.4689 40.2429 27.183 41.4503C25.613 42.9278 21.0153 44.6002 18.3837 43.2052C19.8041 51.2298 33.2611 52.0773 38.6065 46.0176C42.0604 42.1103 44.1537 36.9731 44.1537 31.3409V20.0165C44.1537 17.4141 43.0622 15.1792 41.0138 13.5893C35.5861 9.36701 30.1585 5.14473 24.7309 0.922452C23.1459 -0.307484 21.0078 -0.307484 19.4228 0.922452C13.9952 5.14473 8.56758 9.36701 3.13995 13.5893C1.09151 15.1942 0 17.4291 0 20.024V31.3559Z" fill="#222C57"/>
<path fill-rule="evenodd" clip-rule="evenodd" d="M61.6702 24.2239C62.8365 24.2239 63.8159 24.6589 63.8159 25.9788C63.8159 26.4888 63.6215 26.9462 63.2178 27.2687C62.7842 27.6212 62.2085 27.7337 61.6628 27.7337H56.751V24.2239H61.6702ZM56.7584 18.8692H61.2441C62.2309 18.8692 62.9412 19.4541 62.9412 20.4741C62.9412 21.494 62.1786 22.079 61.2441 22.079H56.7584V18.8692ZM54.4633 16.7393C54.4633 16.7393 54.4633 16.7843 54.4633 16.7918V29.8336C54.4633 29.8336 54.4633 29.8786 54.4633 29.8861C54.4782 29.8861 54.5081 29.8861 54.5156 29.8861H61.745C62.8963 29.8861 64.0775 29.5861 64.9522 28.8062C65.7671 28.0787 66.1484 27.0812 66.1484 25.9938C66.1484 23.8339 64.3392 22.799 63.629 22.754C63.6738 22.8965 65.2438 21.854 65.2438 20.1966C65.2438 19.2442 64.855 18.3742 64.1448 17.7442C63.3449 17.0318 62.2758 16.7318 61.2217 16.7318H54.5231C54.5231 16.7318 54.4857 16.7318 54.4708 16.7318L54.4633 16.7393Z" fill="#222C57"/>
<path d="M70.5292 24.2013C71.2021 23.4589 71.9721 23.1889 73.0262 23.1889C74.5215 23.1889 75.6055 24.2313 75.6055 25.8812C75.6055 27.5312 74.5215 28.5586 73.0262 28.5586C72.002 28.5586 71.1722 28.2286 70.5292 27.5837V24.1938V24.2013ZM70.3124 32.6834C70.4545 32.6834 70.5292 32.6009 70.5292 32.4659V29.5186C71.217 30.0885 72.0244 30.306 73.0262 30.306C75.5756 30.306 77.4072 28.5436 77.4072 25.8887C77.4072 23.2339 75.5532 21.4565 73.0262 21.4565C72.0244 21.4565 71.075 21.7715 70.432 22.4014L70.3199 22.3864L70.1778 21.7715C70.1479 21.644 70.0657 21.584 69.9386 21.584H68.9144C68.7723 21.584 68.6976 21.6665 68.6976 21.8015V32.4584C68.6976 32.6009 68.7723 32.6759 68.9144 32.6759H70.2975L70.3124 32.6834Z" fill="#222C57"/>
<path d="M85.3992 23.3164V26.1513H83.0741C82.1321 26.1513 81.5789 25.5213 81.5789 24.7188C81.5789 23.9164 82.1097 23.3164 83.0741 23.3164H85.3992ZM79.7622 29.8936C79.68 30.0211 79.7174 30.1786 79.9043 30.1786H81.3995C81.5714 30.1786 81.6985 30.1186 81.7583 30.0061L83.0442 27.8762H85.3992V29.9536C85.3992 30.0961 85.474 30.1711 85.616 30.1711H86.9991C87.1411 30.1711 87.2159 30.0886 87.2159 29.9536V21.8015C87.2159 21.659 87.1336 21.584 86.9991 21.584H83.119C81.235 21.584 79.7697 22.9564 79.7697 24.7188C79.7697 25.9788 80.4126 26.8187 81.3696 27.3662L79.7473 29.8861L79.7622 29.8936Z" fill="#222C57"/>
<path d="M89.7503 21.584C89.6083 21.584 89.5335 21.6665 89.5335 21.8015V23.0914C89.5335 23.2339 89.6083 23.3089 89.7503 23.3089H92.4865V29.9461C92.4865 30.0886 92.5613 30.1636 92.7034 30.1636H94.0864C94.2285 30.1636 94.3032 30.0811 94.3032 29.9461V23.3089H97.0395C97.1815 23.3089 97.2563 23.2339 97.2563 23.0914V21.8015C97.2563 21.659 97.174 21.584 97.0395 21.584H89.7503Z" fill="#222C57"/>
<path d="M98.774 25.8887C98.774 28.4236 100.8 30.306 103.282 30.306C105.764 30.306 107.775 28.4311 107.775 25.8887C107.775 23.3464 105.749 21.4565 103.282 21.4565C100.815 21.4565 98.774 23.3614 98.774 25.8887ZM103.282 23.1739C104.837 23.1739 105.936 24.2913 105.936 25.8887C105.936 27.4862 104.837 28.5811 103.282 28.5811C101.727 28.5811 100.613 27.4487 100.613 25.8887C100.613 24.3288 101.712 23.1739 103.282 23.1739Z" fill="#222C57"/>
<path d="M112.201 26.6312H115.094C115.864 26.6312 116.26 26.9312 116.26 27.5462C116.26 28.1012 115.834 28.4611 115.094 28.4611H112.201V26.6312ZM116.597 25.4613C117.18 25.1613 117.509 24.6138 117.509 23.9314C117.509 22.604 116.41 21.584 114.803 21.584H110.608C110.466 21.584 110.392 21.6665 110.392 21.8015V29.9536C110.392 30.0961 110.466 30.1711 110.608 30.1711H115.132C116.888 30.1711 118.07 29.1136 118.07 27.5537C118.07 26.6237 117.539 25.8963 116.589 25.5663V25.4538L116.597 25.4613ZM112.201 23.2864H114.825C115.378 23.2864 115.707 23.6014 115.707 24.1039C115.707 24.6063 115.333 24.9213 114.825 24.9213H112.201V23.2789V23.2864Z" fill="#222C57"/>
<path d="M126.144 27.3812C125.591 28.1236 124.746 28.5811 123.55 28.5811C122.563 28.5811 122.122 28.1686 122.122 27.5237C122.122 26.9687 122.518 26.5487 123.378 26.4062L126.144 25.9487V27.3812ZM126.458 29.1661L126.854 30.156C126.899 30.2835 126.996 30.3285 127.123 30.2835L128.237 29.9235C128.409 29.8785 128.424 29.736 128.379 29.6086L128.177 28.9486C128.005 28.3786 127.975 27.8011 127.975 27.1637V24.4188C127.975 22.2889 126.293 21.4565 124.439 21.4565C122.869 21.4565 121.8 21.884 120.746 22.6564C120.634 22.7389 120.604 22.8964 120.716 23.0164L121.329 23.8864C121.404 23.9988 121.583 24.0138 121.703 23.9313C122.585 23.3764 123.288 23.1739 124.439 23.1739C125.381 23.1739 126.151 23.4739 126.151 24.2163V24.4038L123.385 24.7638C121.449 25.0188 120.305 26.0237 120.305 27.6137C120.305 29.2036 121.561 30.291 123.37 30.291C124.626 30.291 125.62 29.8935 126.39 29.1586H126.473L126.458 29.1661Z" fill="#222C57"/>
<path d="M131.243 21.584C131.1 21.584 131.026 21.6665 131.026 21.8015V29.9536C131.026 30.0961 131.1 30.1711 131.243 30.1711H132.626C132.768 30.1711 132.842 30.0886 132.842 29.9536V26.5787H136.737V29.9536C136.737 30.0961 136.82 30.1711 136.954 30.1711H138.337C138.479 30.1711 138.554 30.0886 138.554 29.9536V21.8015C138.554 21.659 138.472 21.584 138.337 21.584H136.954C136.812 21.584 136.737 21.6665 136.737 21.8015V24.8463H132.842V21.8015C132.842 21.659 132.76 21.584 132.626 21.584H131.243Z" fill="#222C57"/>
<path d="M145.664 23.1739C146.905 23.1739 148.019 23.9314 148.146 25.0338H143.07C143.324 23.9464 144.393 23.1739 145.664 23.1739ZM148.729 27.7037C148.647 27.6062 148.557 27.6062 148.475 27.6887C147.66 28.3636 146.808 28.5886 145.739 28.5886C144.356 28.5886 143.384 27.8312 143.085 26.7437H149.813C149.94 26.7437 150 26.6612 150 26.5262V25.8963C150 23.3239 148.206 21.464 145.664 21.464C143.122 21.464 141.186 23.3239 141.186 25.8963C141.186 28.4686 143.055 30.3135 145.746 30.3135C147.002 30.3135 148.34 29.9535 149.469 28.9861C149.551 28.9036 149.566 28.8136 149.484 28.7311L148.729 27.7037Z" fill="#222C57"/>
<path d="M72.7647 44.9153C72.2115 45.6577 71.3667 46.1152 70.1705 46.1152C69.1837 46.1152 68.7426 45.7027 68.7426 45.0578C68.7426 44.5028 69.1388 44.0828 69.9986 43.9403L72.7647 43.4828V44.9153ZM79.1642 36.2757C79.082 36.3057 79.0521 36.3882 79.1044 36.4932C79.5306 37.5806 80.3604 38.2256 81.5715 38.2256C82.7827 38.2256 83.6125 37.5806 84.0387 36.4932C84.0835 36.3807 84.0536 36.3057 83.9788 36.2757L82.85 35.7732C82.7752 35.7432 82.693 35.7732 82.6481 35.8857C82.4089 36.3882 82.0799 36.5982 81.579 36.5982C81.0781 36.5982 80.7492 36.3957 80.5099 35.8857C80.4651 35.7732 80.3829 35.7432 80.3081 35.7732L79.1792 36.2757H79.1642ZM77.8634 39.1181C77.7214 39.1181 77.6466 39.2006 77.6466 39.3355V47.4876C77.6466 47.6301 77.7214 47.7051 77.8634 47.7051H79.3063C79.4035 47.7051 79.4782 47.6601 79.5605 47.5626L81.4594 44.9603L83.6873 41.7129H83.7994L83.7172 44.2478V47.4801C83.7172 47.6226 83.7994 47.6976 83.934 47.6976H85.2872C85.4292 47.6976 85.504 47.6151 85.504 47.4801V39.328C85.504 39.1856 85.4217 39.1106 85.2872 39.1106H83.934C83.7919 39.1106 83.6798 39.1556 83.605 39.2531L81.265 42.4029L79.4558 45.0353H79.3437L79.4259 42.5154V39.328C79.4259 39.1856 79.3437 39.1106 79.2091 39.1106H77.8559L77.8634 39.1181ZM92.6586 41.1205C94.1164 41.1205 95.1855 42.0804 95.1855 43.5503C95.1855 45.0203 94.0192 46.1377 92.5913 46.1377C91.1633 46.1377 89.9971 44.9678 89.9971 43.5503C89.9971 42.1329 91.2232 41.1205 92.6511 41.1205H92.6586ZM89.9672 40.5355C90.5204 39.3356 91.3951 38.5931 92.8903 38.5931C94.9014 38.5931 95.9406 38.0606 96.4863 36.7182C96.5461 36.5607 96.5162 36.4482 96.3742 36.4032L95.2453 35.8482C95.1032 35.8032 95.0061 35.8332 94.9313 35.9757C94.6023 36.6057 94.1762 36.8457 92.9202 36.8457C90.655 36.8457 88.1281 38.3606 88.1281 42.9429C88.1281 45.7327 89.8251 47.8326 92.5913 47.8326C94.9836 47.8326 96.9573 45.9727 96.9573 43.5428C96.9573 41.113 95.1481 39.463 92.6959 39.463C91.5147 39.463 90.7148 39.8605 90.0419 40.5955L89.9597 40.5355H89.9672ZM105.42 39.1181C105.323 39.1181 105.263 39.1631 105.233 39.2456L103.11 45.2077H102.983L100.434 39.2456C100.404 39.1706 100.336 39.1181 100.247 39.1181H98.5198C98.4077 39.1181 98.3628 39.2156 98.4077 39.2906L102.071 47.2551L102.011 47.4726C101.839 48.0876 101.443 48.2901 100.897 48.2901C100.68 48.2901 100.486 48.2751 100.314 48.2451C100.172 48.2001 100.075 48.3051 100.075 48.4326V49.6175C100.075 49.76 100.135 49.835 100.262 49.8875C100.464 49.97 100.733 50 101.077 50C102.318 50 103.17 49.2575 103.686 47.9826L107.222 39.328C107.267 39.2156 107.237 39.1256 107.125 39.1256H105.413L105.42 39.1181ZM109.39 39.1181C109.248 39.1181 109.173 39.2006 109.173 39.3355V40.6255C109.173 40.768 109.248 40.843 109.39 40.843H112.126V47.4801C112.126 47.6226 112.201 47.6976 112.343 47.6976H113.726C113.868 47.6976 113.943 47.6151 113.943 47.4801V40.843H116.679C116.821 40.843 116.896 40.768 116.896 40.6255V39.3355C116.896 39.1931 116.814 39.1181 116.679 39.1181H109.39ZM119.423 39.1181C119.281 39.1181 119.206 39.2006 119.206 39.3355V47.4876C119.206 47.6301 119.281 47.7051 119.423 47.7051H120.806C120.948 47.7051 121.023 47.6226 121.023 47.4876V44.1128H124.918V47.4876C124.918 47.6301 125 47.7051 125.135 47.7051H126.518C126.66 47.7051 126.735 47.6226 126.735 47.4876V39.3355C126.735 39.1931 126.652 39.1181 126.518 39.1181H125.135C124.993 39.1181 124.918 39.2006 124.918 39.3355V42.3804H121.023V39.3355C121.023 39.1931 120.941 39.1181 120.806 39.1181H119.423ZM135.078 42.5529C135.078 42.4104 134.996 42.3354 134.861 42.3354H131.34C131.699 41.3229 132.611 40.7305 133.792 40.7305C134.861 40.7305 135.534 41.1055 136.162 41.9154C136.222 41.9979 136.349 42.0579 136.461 41.9454L137.448 41.188C137.53 41.128 137.545 41.0455 137.478 40.933C136.738 39.763 135.295 38.9906 133.784 38.9906C131.273 38.9906 129.351 40.8505 129.351 43.3853C129.351 45.9202 131.265 47.8326 133.784 47.8326C135.407 47.8326 136.708 47.1876 137.523 45.8602C137.582 45.7852 137.567 45.6877 137.493 45.6052L136.506 44.8178C136.409 44.7353 136.334 44.7353 136.252 44.8178C135.609 45.7627 134.898 46.0927 133.784 46.0927C132.401 46.0927 131.415 45.3352 131.175 44.0153H134.854C134.996 44.0153 135.07 43.9328 135.07 43.7978V42.5529H135.078ZM62.059 39.1181C61.9169 39.1181 61.8197 39.1781 61.7749 39.2906L60.5787 42.1779L59.3377 45.3652H59.2779L58.0219 42.1779L56.7659 39.2906C56.7211 39.1781 56.6239 39.1181 56.5117 39.1181H54.6726C54.5306 39.1181 54.4558 39.2006 54.4558 39.3355V47.4876C54.4558 47.6301 54.5306 47.7051 54.6726 47.7051H55.9959C56.1379 47.7051 56.2127 47.6226 56.2127 47.4876V44.3678L56.1305 41.9904L56.2276 41.9754L57.5135 45.2452L58.4406 47.5551C58.4854 47.6676 58.5826 47.7126 58.6948 47.7126H59.7638C59.876 47.7126 59.9657 47.6676 60.018 47.5551L60.9899 45.2452L62.2459 41.9904L62.3431 42.0054L62.2608 44.3603V47.4876C62.2608 47.6301 62.3431 47.7126 62.4776 47.7126H63.8607C64.0028 47.7126 64.0775 47.6301 64.0775 47.4876V39.328C64.0775 39.1856 64.0028 39.1106 63.8607 39.1106L62.0515 39.1256L62.059 39.1181ZM73.0787 46.7002L73.475 47.6901C73.5198 47.8176 73.617 47.8626 73.7441 47.8176L74.858 47.4576C75.03 47.4126 75.0449 47.2701 75.0001 47.1426L74.7982 46.4827C74.6263 45.9127 74.5964 45.3352 74.5964 44.6978V41.9529C74.5964 39.823 72.9142 38.9906 71.0602 38.9906C69.4902 38.9906 68.4211 39.418 67.367 40.1905C67.2549 40.273 67.225 40.4305 67.3371 40.5505L67.9501 41.4204C68.0249 41.5329 68.2043 41.5479 68.3239 41.4654C69.2061 40.9105 69.9089 40.708 71.0602 40.708C72.0022 40.708 72.7722 41.008 72.7722 41.7504V41.9379L70.0061 42.2979C68.0697 42.5529 66.9259 43.5578 66.9259 45.1477C66.9259 46.7377 68.1819 47.8251 69.9911 47.8251C71.2471 47.8251 72.2414 47.4276 73.0114 46.6927H73.0937L73.0787 46.7002Z" fill="#222C57"/>
</svg>
